<svg width='200' height='200' fill="#000000" xmlns="http://www.w3.org/2000/svg" xmlns:xlink="http://www.w3.org/1999/xlink" version="1.1" x="0px" y="0px" viewBox="0 0 100 100" enable-background="new 0 0 100 100" xml:space="preserve"><g><path d="M29.416,51.25H9.194C6.882,51.25,5,53.131,5,55.443v21.113c0,2.313,1.882,4.193,4.194,4.193h20.222   c2.313,0,4.194-1.881,4.194-4.193V55.443C33.61,53.131,31.729,51.25,29.416,51.25z M25.253,53.096c1.623,0,2.944,1.32,2.944,2.941   v15.762c0,1.623-1.321,2.943-2.944,2.943H13.06c-1.622,0-2.942-1.32-2.942-2.943V56.037c0-1.621,1.32-2.941,2.942-2.941H25.253z    M5.655,55.443c0-1.951,1.588-3.537,3.539-3.537h17.883l-1.87,0.533H13.06c-1.983,0-3.598,1.613-3.598,3.598V71.67l-3.807,4.059   V55.443z"/><path d="M60.11,51.25H39.89c-2.313,0-4.194,1.881-4.194,4.193v21.113c0,2.313,1.881,4.193,4.194,4.193H60.11   c2.313,0,4.194-1.881,4.194-4.193V55.443C64.305,53.131,62.424,51.25,60.11,51.25z M55.948,53.096c1.623,0,2.943,1.32,2.943,2.941   v15.762c0,1.623-1.32,2.943-2.943,2.943H43.755c-1.623,0-2.942-1.32-2.942-2.943V56.037c0-1.621,1.319-2.941,2.942-2.941H55.948z    M36.351,55.443c0-1.951,1.588-3.537,3.539-3.537h17.882l-1.869,0.533H43.755c-1.984,0-3.599,1.613-3.599,3.598V71.67l-3.806,4.059   V55.443z"/><path d="M60.11,19.25H39.89c-2.313,0-4.194,1.881-4.194,4.194v21.113c0,2.312,1.881,4.195,4.194,4.195H60.11   c2.313,0,4.194-1.883,4.194-4.195V23.444C64.305,21.131,62.424,19.25,60.11,19.25z M55.948,21.096c1.623,0,2.943,1.32,2.943,2.942   v15.761c0,1.623-1.32,2.943-2.943,2.943H43.755c-1.623,0-2.942-1.32-2.942-2.943V24.038c0-1.623,1.319-2.942,2.942-2.942H55.948z    M36.351,23.444c0-1.951,1.588-3.539,3.539-3.539h17.882l-1.869,0.535H43.755c-1.984,0-3.599,1.614-3.599,3.598v15.631   l-3.806,4.059V23.444z"/><path d="M90.806,51.25H70.584c-2.313,0-4.194,1.881-4.194,4.193v21.113c0,2.313,1.882,4.193,4.194,4.193h20.222   c2.313,0,4.194-1.881,4.194-4.193V55.443C95,53.131,93.118,51.25,90.806,51.25z M86.643,53.096c1.624,0,2.944,1.32,2.944,2.941   v15.762c0,1.623-1.32,2.943-2.944,2.943H74.449c-1.622,0-2.942-1.32-2.942-2.943V56.037c0-1.621,1.32-2.941,2.942-2.941H86.643z    M67.045,55.443c0-1.951,1.588-3.537,3.539-3.537h17.883l-1.87,0.533H74.449c-1.983,0-3.598,1.613-3.598,3.598V71.67l-3.807,4.059   V55.443z"/><polygon fill="none" points="44.602,31.465 46.418,31.465 46.418,37.414 47.15,37.414 47.15,31.465 48.967,31.465 46.784,27.686     "/><polygon fill="none" points="16.511,62.445 12.73,64.629 16.511,66.811 16.511,64.992 22.46,64.992 22.46,64.262 16.511,64.262     "/><polygon fill="none" points="47.15,59.768 46.418,59.768 46.418,65.717 44.602,65.717 46.784,69.496 48.967,65.717 47.15,65.717     "/><polygon fill="none" points="79.489,64.262 73.541,64.262 73.541,64.992 79.489,64.992 79.489,66.811 83.27,64.629 79.489,62.445     "/><path fill="#000000" d="M79.489,66.811v-1.816h-5.948v-0.73h5.948v-1.818l3.78,2.186L79.489,66.811z"/><path fill="#000000" d="M46.784,69.496l-2.183-3.779h1.816v-5.949h0.731v5.949h1.817L46.784,69.496z"/><path fill="#000000" d="M22.46,64.992h-5.949v1.818l-3.781-2.184l3.781-2.184v1.816h5.949V64.992z"/><path fill="#000000" d="M47.15,31.465v5.949h-0.73v-5.949h-1.818l2.184-3.779l2.184,3.779H47.15z"/></g></svg>